<?xml version="1.0" encoding="utf-8"?>
<!-- Generator: Adobe Illustrator 25.0.1, SVG Export Plug-In . SVG Version: 6.00 Build 0)  -->
<svg version="1.0" id="katman_1" xmlns="http://www.w3.org/2000/svg" xmlns:xlink="http://www.w3.org/1999/xlink" x="0px" y="0px"
	 viewBox="0 0 560 400" style="enable-background:new 0 0 560 400;" xml:space="preserve">
<style type="text/css">
	.st0{fill:#FFAB00;}
	.st1{fill:#FFFFFF;}
	.st2{fill:#040301;}
</style>
<g transform="matrix(1.25 0 0 1.25 145 75.6875)">
	<path class="st0" d="M228.6,171.7c0,21.4-17.2,38-39.2,38H26.5c-22,0.1-39.1-16.6-39.1-38V26.9c0-21.4,17.3-38.3,39.5-38.3h163
		c21.7,0,38.7,16.7,38.7,38.3v144.8H228.6z"/>
	<path class="st1" d="M183.6,125.8h-20.8l-3.6-22.7l-13.4,22.4h-21l12.8,13.5l-10.5,22.7l23-13.7l18,14l-3.4-22.9"/>
	<path class="st2" d="M230.5,207.9c0-0.8-0.2-1.4-0.9-1.6c-0.3-0.1-0.9-0.2-1.7-0.2v0.1h-2.3v6.3h1.2V210h0.8c0.6,0,1,0.1,1.3,0.2
		c0.3,0.2,0.6,0.7,0.6,1.4v0.8h1V211c0-0.2-0.1-0.6-0.3-0.9s-0.6-0.5-1-0.6c0.3-0.1,0.7-0.2,0.9-0.3
		C230.2,208.8,230.5,208.5,230.5,207.9L230.5,207.9z M228.7,208.9c-0.2,0.1-0.6,0.1-1,0.1h-1v-2.2h0.9c0.7,0,1.2,0.1,1.4,0.2
		c0.2,0.2,0.5,0.5,0.5,0.9S229.2,208.8,228.7,208.9L228.7,208.9z M227.8,203.6c-1.6,0-2.9,0.5-4.1,1.6c-1,1.2-1.6,2.4-1.6,4.1
		s0.5,2.9,1.6,4.1s2.4,1.7,4.1,1.7s2.9-0.6,4.1-1.7s1.7-2.6,1.7-4.1c0-1.6-0.6-2.9-1.7-4.1C230.7,204.2,229.4,203.6,227.8,203.6z
		 M231.3,212.8c-0.9,1-2.1,1.5-3.5,1.5s-2.6-0.6-3.5-1.5s-1.4-2.1-1.4-3.5s0.5-2.6,1.4-3.5c1-1,2.2-1.5,3.5-1.4
		c1.4,0,2.6,0.5,3.5,1.4c0.9,0.9,1.4,2.1,1.4,3.5S232.2,211.9,231.3,212.8z M189.9-16.2H26.9c-24.5,0-44.5,19.4-44.5,43.1v144.8
		c0,24.1,19.3,43,44.1,43h163c24.8,0,44.1-19,44.1-43V26.9C233.6,2.7,214.4-16.2,189.9-16.2z M228.7,171.7
		c-0.1,21.4-17.3,38-39.3,38H26.5c-22,0.1-39.1-16.6-39.1-38V26.9c0-21.4,17.3-38.3,39.5-38.3h163c21.7,0,38.7,16.7,38.7,38.3
		L228.7,171.7z M161.6,89.9L143.2,121h-3.5c-2.1-3.6-2.9-8.8-2.9-12.1c0-5.3,0.3-10.6,0.3-17.4c0-9.1-2.7-13.8-9.8-15.6v-0.2
		c15-2.1,21.9-12.1,21.9-26.1c0-19.9-13.3-24.2-30.6-24.2H72.1l-19.8,93.5h24.8l7.2-34.1h16.5c8.8,0,12.4,4.3,12.4,12.6
		c0,6.3-0.7,11.3-0.7,16c0,1.7,0.3,5.9,1.6,7.6l17.9,19l-15.5,33.1l33-19.7l24.7,19l-4.5-31.3l28.4-19.9h-31.5L161.6,89.9z
		 M108.2,67.4H88.5l4.8-22.6h18.4c6.5,0,13.4,1.7,13.4,9.7C125,64.6,117.2,67.4,108.2,67.4z M164.9,139l3.4,23L150.1,148l-23,13.7
		l10.6-22.6l-12.8-13.5h21l13.3-22.4l3.6,22.7h20.9L164.9,139z"/>
</g>
</svg>
